<svg xmlns="http://www.w3.org/2000/svg" viewBox="0 0 900 760">
<rect width="900" height="760" fill="#101722"/>
<polygon points="78.0,356 450.0,118 450.0,170 78.0,408" fill="#E06A2E"/>
<polygon points="450.0,118 822.0,356 822.0,408 450.0,170" fill="#5C93C4"/>
<polygon points="78.0,408 450.0,170 450.0,196 112.0,418.4" fill="#B8511F"/>
<polygon points="450.0,170 822.0,408 788.0,418.4 450.0,196" fill="#3E6E9E"/>
<line x1="104.0" y1="352.36559139784947" x2="442.0" y2="131" stroke="#EDE9E0" stroke-width="5"/>
<line x1="458.0" y1="131" x2="796.0" y2="352.36559139784947" stroke="#EDE9E0" stroke-width="5"/>
<line x1="450.0" y1="118" x2="450.0" y2="196" stroke="#101722" stroke-width="4"/>
<polygon points="78.0,356 78.0,408 88.0,408 88.0,356" fill="#B8511F"/>
<polygon points="812.0,356 812.0,408 822.0,408 822.0,356" fill="#3E6E9E"/>
<text x="450.0" y="472" text-anchor="middle" font-family="Archivo" font-weight="900" font-size="176" letter-spacing="2" fill="#EDE9E0">LOFT</text>
<text x="450.0" y="540" text-anchor="middle" font-family="Barlow Semi Condensed" font-weight="700" font-size="52" letter-spacing="22" fill="#EDE9E0">MINI SPLITS</text>
<g>
<polygon points="120.0,596 780.0,596 756.0,658 144.0,658" fill="none" stroke="#EDE9E0" stroke-width="3"/>
<polygon points="120.0,596 82.0,630.1 120.0,630.1 " fill="none" stroke="#EDE9E0" stroke-width="3"/>
<polygon points="780.0,596 818.0,630.1 780.0,630.1" fill="none" stroke="#EDE9E0" stroke-width="3"/>
</g>
<text x="254.0" y="637" text-anchor="middle" font-family="Barlow Semi Condensed" font-weight="700" font-size="30" letter-spacing="4" fill="#EDE9E0">WICHITA</text>
<text x="450.0" y="637" text-anchor="middle" font-family="Barlow Semi Condensed" font-weight="700" font-size="30" letter-spacing="4" fill="#EDE9E0">OMAHA</text>
<text x="646.0" y="637" text-anchor="middle" font-family="Barlow Semi Condensed" font-weight="700" font-size="30" letter-spacing="4" fill="#EDE9E0">OZARKS</text>
<polygon points="352.0,615.0 355.0,622.9 363.4,623.3 356.8,628.6 359.1,636.7 352.0,632.0 344.9,636.7 347.2,628.6 340.6,623.3 349.0,622.9" fill="#D9A94F"/>
<polygon points="548.0,615.0 551.0,622.9 559.4,623.3 552.8,628.6 555.1,636.7 548.0,632.0 540.9,636.7 543.2,628.6 536.6,623.3 545.0,622.9" fill="#D9A94F"/>
</svg>